<?xml version="1.0" encoding="UTF-8"?>
<svg version="1.1" xmlns="http://www.w3.org/2000/svg" width="512" height="512">
<path d="M0 0 C1.25641296 -0.0098568 1.25641296 -0.0098568 2.53820801 -0.01991272 C5.31819748 -0.03966872 8.09813282 -0.05131489 10.87817383 -0.0612793 C11.82743555 -0.06535482 12.77669727 -0.06943035 13.7547245 -0.07362938 C18.78130502 -0.0945023 23.80785815 -0.10879738 28.83447266 -0.11816406 C34.02192102 -0.12921672 39.20893903 -0.16359995 44.39623547 -0.20333576 C48.38803391 -0.22951113 52.37973011 -0.23785684 56.37160683 -0.24144554 C58.28332734 -0.24631098 60.1950433 -0.25792376 62.10667992 -0.27648354 C64.78760963 -0.30088923 67.46743019 -0.29990717 70.1484375 -0.29296875 C70.93364273 -0.30577881 71.71884796 -0.31858887 72.52784729 -0.33178711 C78.08907516 -0.2795158 81.3187329 0.9851452 85.89770508 4.17700195 C89.69596205 9.07475437 91.02475417 12.62376555 91.01123047 18.75 C91.01115494 19.89095627 91.01107941 21.03191254 91.01100159 22.20744324 C91.0058403 23.4387648 91.00067902 24.67008636 90.99536133 25.9387207 C90.99323891 27.83011528 90.99323891 27.83011528 90.99107361 29.75971985 C90.98642082 33.10851904 90.97743849 36.45725006 90.96636963 39.80603027 C90.95613195 43.22460339 90.95157094 46.64318355 90.9465332 50.06176758 C90.93549607 56.76686456 90.91875194 63.47192932 90.89770508 70.17700195 C92.06410774 70.63493134 92.06410774 70.63493134 93.2540741 71.10211182 C95.82937273 72.14921829 98.15696977 73.35321903 100.57348633 74.72387695 C101.47107666 75.23160645 102.36866699 75.73933594 103.29345703 76.26245117 C104.25598389 76.81175293 105.21851074 77.36105469 106.21020508 77.92700195 C107.73230591 78.79156006 107.73230591 78.79156006 109.28515625 79.67358398 C117.44517979 84.32049935 125.56332589 89.03800242 133.66650391 93.78320312 C139.07022585 96.94735468 144.48181471 100.09696028 149.90942383 103.2199707 C150.49456253 103.55675842 151.07970123 103.89354614 151.68257141 104.24053955 C154.5106605 105.86776606 157.3398622 107.49302076 160.17041016 109.1159668 C162.18188286 110.27248049 164.1901567 111.43458279 166.19458008 112.60327148 C167.90448727 113.59876117 169.62239264 114.58074409 171.35083008 115.54370117 C172.06754883 115.95765137 172.78426758 116.37160156 173.52270508 116.7980957 C174.1337207 117.14155029 174.74473633 117.48500488 175.37426758 117.83886719 C178.05089473 120.18992383 178.79901195 122.87834677 179.06651497 126.39828968 C179.12055116 129.2328765 179.10713404 132.06058506 179.07373047 134.89550781 C179.06931946 135.97590332 179.06490845 137.05629883 179.06036377 138.16943359 C179.05052292 140.51460103 179.03666698 142.85975427 179.01927376 145.20487785 C178.98684439 150.20504063 178.98930464 155.20499674 178.98956203 160.20524693 C178.98941854 169.50938789 178.97448257 178.81283828 178.90136719 188.11669922 C178.85180829 194.59378015 178.84650038 201.06963363 178.86950493 207.54684639 C178.87007093 210.00543777 178.85454526 212.46409124 178.82206917 214.92246819 C178.63353952 229.80512421 179.14890641 239.53792433 188.89770508 251.17700195 C202.83065914 275.18669961 204.13210962 305.7468353 197.39379883 332.15161133 C189.26029496 361.70334204 168.65166581 386.94463628 147.08129883 407.99731445 C145.14483573 409.9303134 143.35428789 411.90466598 141.58520508 413.98950195 C137.8527321 418.3603076 133.76039351 422.3440939 129.67382812 426.37915039 C126.04408358 429.9799244 122.63617499 433.69475075 119.32348633 437.59106445 C116.49867936 440.73317851 113.2652058 443.88816686 108.94458008 444.4152832 C108.18661133 444.43977539 107.42864258 444.46426758 106.64770508 444.48950195 C105.90004883 444.52688477 105.15239258 444.56426758 104.38208008 444.6027832 C98.13435963 443.53202608 93.98389026 438.44300918 89.96020508 433.92700195 C89.43152832 433.34418457 88.90285156 432.76136719 88.3581543 432.16088867 C85.16810605 428.63370476 82.03894265 425.05608071 78.92895508 421.45825195 C76.01619631 418.18699979 73.01718501 414.9983702 70.02270508 411.80200195 C58.40539402 399.39007109 47.47200079 386.63992741 37.15942383 373.12231445 C36.41305664 372.15036133 35.66668945 371.1784082 34.89770508 370.17700195 C34.30658936 369.36263672 33.71547363 368.54827148 33.10644531 367.70922852 C30.68824284 364.93686242 28.50290574 363.49934529 25.29614258 361.71606445 C24.17965332 361.08756592 23.06316406 360.45906738 21.9128418 359.81152344 C20.69948717 359.14163897 19.4861076 358.47179966 18.27270508 357.80200195 C17.01049387 357.09491835 15.74894744 356.38664689 14.48803711 355.67724609 C11.89357887 354.21820993 9.29680672 352.76342505 6.69848633 351.3112793 C1.02517394 348.1335857 -4.60035481 344.8733842 -10.22729492 341.61450195 C-12.37562907 340.37343761 -14.52406667 339.13255233 -16.67260742 337.8918457 C-17.73253906 337.27937988 -18.7924707 336.66691406 -19.88452148 336.03588867 C-25.28900138 332.9137559 -30.69576904 329.79558991 -36.10229492 326.67700195 C-38.26897243 325.42702074 -40.4356391 324.17702074 -42.60229492 322.92700195 C-43.67479492 322.30825195 -44.74729492 321.68950195 -45.85229492 321.05200195 C-49.10229492 319.17700195 -52.35229492 317.30200195 -55.60229492 315.42700195 C-57.21358276 314.49754761 -57.21358276 314.49754761 -58.85742188 313.54931641 C-61.00731361 312.30881383 -63.15689451 311.0677724 -65.30615234 309.82617188 C-70.37025971 306.90156813 -75.43730394 303.98246429 -80.51565552 301.08267212 C-82.90766609 299.71636323 -85.297892 298.34694909 -87.68798828 296.97729492 C-89.37058455 296.01479181 -91.05574329 295.05677264 -92.7409668 294.09887695 C-93.76383789 293.51235352 -94.78670898 292.92583008 -95.84057617 292.3215332 C-96.7381665 291.80953369 -97.63575684 291.29753418 -98.56054688 290.77001953 C-105.47146328 286.43866524 -105.47146328 286.43866524 -107.10229492 283.17700195 C-107.20513611 281.07259348 -107.24182867 278.96486196 -107.24946594 276.85795593 C-107.25498097 275.87450651 -107.25498097 275.87450651 -107.26060742 274.87118942 C-107.27166111 272.66411845 -107.27549092 270.45709453 -107.27929688 268.25 C-107.28556023 266.67162933 -107.29220692 265.09326014 -107.29920959 263.51489258 C-107.31663057 259.21936288 -107.32717423 254.92384431 -107.33541512 250.62828803 C-107.34056271 247.9457357 -107.34663854 245.26318685 -107.35292625 242.58063698 C-107.37198097 234.19090041 -107.38621179 225.80117267 -107.39453822 217.41141862 C-107.40431422 207.7205688 -107.43064194 198.02994718 -107.47103912 188.33917779 C-107.50117773 180.85291971 -107.51600493 173.36672712 -107.51931924 165.88040954 C-107.52167221 161.4071919 -107.53066459 156.93421796 -107.55578041 152.46106529 C-107.57902701 148.25278645 -107.58330828 144.04491236 -107.57301903 139.836586 C-107.57252273 138.29222837 -107.5788709 136.74785105 -107.59257507 135.20355415 C-107.61024575 133.09421586 -107.60321369 130.98633779 -107.59004211 128.8769989 C-107.59243047 127.69693614 -107.59481882 126.51687338 -107.59727955 125.30105114 C-106.99741369 121.51505384 -105.75150768 119.89681862 -103.10229492 117.17700195 C-100.43945312 115.39111328 -100.43945312 115.39111328 -97.40307617 113.7590332 C-95.72652954 112.84541016 -95.72652954 112.84541016 -94.01611328 111.91333008 C-93.42861298 111.59952393 -92.84111267 111.28571777 -92.23580933 110.96240234 C-89.76396193 109.64178605 -87.30530312 108.29745994 -84.84577942 106.95407104 C-83.61885762 106.28407719 -82.39131048 105.61522717 -81.16313171 104.94754028 C-76.5669147 102.44598647 -72.03312565 99.85808001 -67.53979492 97.17700195 C-59.25050752 92.24425515 -50.8955938 87.42833375 -42.53564453 82.61645508 C-40.44020895 81.4099384 -38.34570776 80.2017973 -36.25219727 78.99194336 C-34.06425581 77.73127394 -31.87150519 76.47892902 -29.67504883 75.2331543 C-28.58498535 74.61005371 -27.49492187 73.98695312 -26.37182617 73.3449707 C-25.3841626 72.78447021 -24.39649902 72.22396973 -23.37890625 71.64648438 C-20.99114601 70.37882961 -20.99114601 70.37882961 -20.10229492 68.17700195 C-20.0031019 66.39104349 -19.96673541 64.60144405 -19.96044922 62.81274414 C-19.95341476 61.69107849 -19.94638031 60.56941284 -19.93913269 59.41375732 C-19.93288628 57.58726654 -19.93288628 57.58726654 -19.92651367 55.72387695 C-19.90331331 53.16006668 -19.87919589 50.59626457 -19.85424805 48.0324707 C-19.81787653 43.9792482 -19.78810936 39.92617677 -19.77636719 35.87280273 C-19.76431624 31.96871029 -19.72068235 28.06524158 -19.67651367 24.16137695 C-19.67842209 22.95181335 -19.68033051 21.74224976 -19.68229675 20.49603271 C-19.58954087 14.1161271 -19.48401258 9.98045428 -15.10229492 5.17700195 C-9.91126006 0.60394744 -6.76848973 0.02288346 0 0 Z M77.89770508 285.17700195 C76.6433705 288.94000569 76.79075086 292.44911104 76.83520508 296.36450195 C76.8397168 297.1140918 76.84422852 297.86368164 76.84887695 298.63598633 C76.86064154 300.48302578 76.87857642 302.33002409 76.89770508 304.17700195 C77.88770508 304.50700195 78.87770508 304.83700195 79.89770508 305.17700195 C80.55770508 304.84700195 81.21770508 304.51700195 81.89770508 304.17700195 C83.56987494 297.2310656 82.07704891 291.87509826 79.89770508 285.17700195 C79.23770508 285.17700195 78.57770508 285.17700195 77.89770508 285.17700195 Z M87.89770508 291.17700195 C88.08234874 295.51884398 88.08234874 295.51884398 89.89770508 299.17700195 C90.19907893 303.38737189 90.05251911 307.41700581 89.21020508 311.55200195 C89.10708008 312.41825195 89.00395508 313.28450195 88.89770508 314.17700195 C90.12579599 315.82255895 90.12579599 315.82255895 91.89770508 317.17700195 C92.39270508 318.06387695 92.88770508 318.95075195 93.39770508 319.86450195 C93.89270508 320.62762695 94.38770508 321.39075195 94.89770508 322.17700195 C95.88770508 322.17700195 96.87770508 322.17700195 97.89770508 322.17700195 C97.89770508 323.49700195 97.89770508 324.81700195 97.89770508 326.17700195 C95.91770508 326.67200195 95.91770508 326.67200195 93.89770508 327.17700195 C97.7286259 328.55613345 100.9451159 327.75192402 104.89770508 327.17700195 C106.38270508 327.67200195 106.38270508 327.67200195 107.89770508 328.17700195 C110.65623924 327.8626342 110.65623924 327.8626342 113.58520508 327.23950195 C114.57907227 327.04485352 115.57293945 326.85020508 116.59692383 326.6496582 C117.35618164 326.49368164 118.11543945 326.33770508 118.89770508 326.17700195 C118.61558631 324.55031715 118.32168133 322.92567299 118.02270508 321.30200195 C117.8602832 320.39708008 117.69786133 319.4921582 117.53051758 318.55981445 C117.06725805 316.01194207 117.06725805 316.01194207 114.89770508 314.17700195 C114.27270508 311.55200195 114.27270508 311.55200195 113.89770508 309.17700195 C113.56770508 309.17700195 113.23770508 309.17700195 112.89770508 309.17700195 C112.89770508 310.82700195 112.89770508 312.47700195 112.89770508 314.17700195 C112.23770508 314.17700195 111.57770508 314.17700195 110.89770508 314.17700195 C110.89770508 315.16700195 110.89770508 316.15700195 110.89770508 317.17700195 C107.59770508 316.84700195 104.29770508 316.51700195 100.89770508 316.17700195 C100.20239339 312.43970161 99.89770508 308.96900227 99.89770508 305.17700195 C99.56770508 304.84700195 99.23770508 304.51700195 98.89770508 304.17700195 C98.71020508 300.73950195 98.71020508 300.73950195 98.89770508 297.17700195 C100.89770508 295.17700195 100.89770508 295.17700195 104.02270508 295.05200195 C104.97145508 295.09325195 105.92020508 295.13450195 106.89770508 295.17700195 C106.56770508 293.85700195 106.23770508 292.53700195 105.89770508 291.17700195 C104.86645508 291.69262695 103.83520508 292.20825195 102.77270508 292.73950195 C98.04774079 294.75904314 94.75838752 293.86464547 90.02270508 292.11450195 C89.32145508 291.80512695 88.62020508 291.49575195 87.89770508 291.17700195 Z M115.89770508 302.17700195 C115.56770508 304.15700195 115.23770508 306.13700195 114.89770508 308.17700195 C115.55770508 307.84700195 116.21770508 307.51700195 116.89770508 307.17700195 C116.89770508 305.52700195 116.89770508 303.87700195 116.89770508 302.17700195 C116.56770508 302.17700195 116.23770508 302.17700195 115.89770508 302.17700195 Z " fill="#020228" transform="translate(209.102294921875,33.822998046875)"/>
<path d="M0 0 C17.62362352 13.5728205 29.12292898 34.06967319 32.9375 55.9375 C35.32704319 97.34538715 21.46494426 126.17071109 -5.47851562 156.53320312 C-10.81741305 162.49238739 -16.32492123 168.24921563 -22.0234375 173.8671875 C-23.9163935 175.78915432 -25.68591163 177.76206243 -27.4375 179.8125 C-30.36173175 183.22865858 -33.48851163 186.40603016 -36.6875 189.5625 C-40.37789884 193.21228923 -43.8618363 196.85389458 -47.0625 200.9375 C-51.41876273 196.64033386 -55.62185504 192.20831091 -59.8125 187.75 C-60.52768799 186.98969482 -61.24287598 186.22938965 -61.97973633 185.44604492 C-66.30973668 180.83272295 -70.58785466 176.18086321 -74.79296875 171.453125 C-77.1152039 168.87908122 -79.48006921 166.35014479 -81.85327148 163.82324219 C-110.72054213 133.03038728 -129.44910055 102.35969709 -128.23291016 59.14599609 C-127.1553751 38.85807955 -115.31788231 18.91420566 -101.0625 4.9375 C-71.4995669 -21.28831582 -31.94280932 -22.44276507 0 0 Z M-76.0625 54.9375 C-77.31683458 58.70050374 -77.16945422 62.20960909 -77.125 66.125 C-77.12048828 66.87458984 -77.11597656 67.62417969 -77.11132812 68.39648438 C-77.09956354 70.24352383 -77.08162865 72.09052213 -77.0625 73.9375 C-76.0725 74.2675 -75.0825 74.5975 -74.0625 74.9375 C-73.4025 74.6075 -72.7425 74.2775 -72.0625 73.9375 C-70.39033014 66.99156365 -71.88315616 61.63559631 -74.0625 54.9375 C-74.7225 54.9375 -75.3825 54.9375 -76.0625 54.9375 Z M-66.0625 60.9375 C-65.87785634 65.27934202 -65.87785634 65.27934202 -64.0625 68.9375 C-63.76112615 73.14786993 -63.90768597 77.17750386 -64.75 81.3125 C-64.853125 82.17875 -64.95625 83.045 -65.0625 83.9375 C-63.83440909 85.58305699 -63.83440909 85.58305699 -62.0625 86.9375 C-61.5675 87.824375 -61.0725 88.71125 -60.5625 89.625 C-60.0675 90.388125 -59.5725 91.15125 -59.0625 91.9375 C-58.0725 91.9375 -57.0825 91.9375 -56.0625 91.9375 C-56.0625 93.2575 -56.0625 94.5775 -56.0625 95.9375 C-58.0425 96.4325 -58.0425 96.4325 -60.0625 96.9375 C-56.23157918 98.3166315 -53.01508918 97.51242206 -49.0625 96.9375 C-47.5775 97.4325 -47.5775 97.4325 -46.0625 97.9375 C-43.30396583 97.62313225 -43.30396583 97.62313225 -40.375 97 C-39.38113281 96.80535156 -38.38726562 96.61070312 -37.36328125 96.41015625 C-36.60402344 96.25417969 -35.84476563 96.09820312 -35.0625 95.9375 C-35.34461877 94.3108152 -35.63852375 92.68617104 -35.9375 91.0625 C-36.09992188 90.15757812 -36.26234375 89.25265625 -36.4296875 88.3203125 C-36.89294703 85.77244012 -36.89294703 85.77244012 -39.0625 83.9375 C-39.6875 81.3125 -39.6875 81.3125 -40.0625 78.9375 C-40.3925 78.9375 -40.7225 78.9375 -41.0625 78.9375 C-41.0625 80.5875 -41.0625 82.2375 -41.0625 83.9375 C-41.7225 83.9375 -42.3825 83.9375 -43.0625 83.9375 C-43.0625 84.9275 -43.0625 85.9175 -43.0625 86.9375 C-46.3625 86.6075 -49.6625 86.2775 -53.0625 85.9375 C-53.75781169 82.20019966 -54.0625 78.72950032 -54.0625 74.9375 C-54.3925 74.6075 -54.7225 74.2775 -55.0625 73.9375 C-55.25 70.5 -55.25 70.5 -55.0625 66.9375 C-53.0625 64.9375 -53.0625 64.9375 -49.9375 64.8125 C-48.98875 64.85375 -48.04 64.895 -47.0625 64.9375 C-47.3925 63.6175 -47.7225 62.2975 -48.0625 60.9375 C-49.09375 61.453125 -50.125 61.96875 -51.1875 62.5 C-55.91246429 64.51954119 -59.20181755 63.62514351 -63.9375 61.875 C-64.63875 61.565625 -65.34 61.25625 -66.0625 60.9375 Z M-38.0625 71.9375 C-38.3925 73.9175 -38.7225 75.8975 -39.0625 77.9375 C-38.4025 77.6075 -37.7425 77.2775 -37.0625 76.9375 C-37.0625 75.2875 -37.0625 73.6375 -37.0625 71.9375 C-37.3925 71.9375 -37.7225 71.9375 -38.0625 71.9375 Z " fill="#FD747B" transform="translate(363.0625,264.0625)"/>
<path d="M0 0 C7.90889133 3.95444567 15.54580824 7.94394641 23.125 12.4375 C25.23402286 13.67768236 27.34341061 14.91724438 29.453125 16.15625 C30.53142578 16.79046875 31.60972656 17.4246875 32.72070312 18.078125 C38.08994733 21.22484108 43.48208191 24.33158619 48.875 27.4375 C49.95410645 28.05939209 51.03321289 28.68128418 52.14501953 29.32202148 C54.33582951 30.58449731 56.5267476 31.84678556 58.71777344 33.10888672 C65.21706294 36.8535681 71.71356872 40.60307826 78.20996094 44.3527832 C83.2500043 47.26147065 88.29101745 50.16842846 93.33599854 53.06854248 C95.11749578 54.09275665 96.89864322 55.11757651 98.6796875 56.14257812 C100.91076625 57.42633375 103.14249573 58.70895939 105.375 59.99023438 C106.38820313 60.57353516 107.40140625 61.15683594 108.4453125 61.7578125 C109.32719238 62.2645752 110.20907227 62.77133789 111.11767578 63.29345703 C112.06884277 63.85661621 113.02000977 64.41977539 114 65 C114.68988007 65.33318741 115.37976013 65.66637482 116.09054565 66.00965881 C121.56224225 68.87995412 121.56224225 68.87995412 122.73458862 71.8795166 C123.02768437 74.17943153 123.05761294 76.35035084 122.9921875 78.66796875 C122.99509796 79.50282303 122.99800842 80.33767731 123.00100708 81.1978302 C122.99769408 82.96218838 122.9746235 84.72660578 122.93310547 86.49047852 C122.87551639 89.16353131 122.89180495 91.82855558 122.91796875 94.50195312 C122.89258856 104.30616941 122.15681331 111.02016928 116 119 C104.36353102 142.06606739 102.50063549 170.89453675 110.08984375 195.5390625 C110.76608303 197.36322397 111.47335987 199.17664209 112.23046875 200.96875 C113 203 113 203 113 206 C109.36367377 204.62551133 106.02935879 202.99565142 102.640625 201.09375 C101.10450562 200.23342163 101.10450562 200.23342163 99.53735352 199.35571289 C98.45252686 198.74332764 97.3677002 198.13094238 96.25 197.5 C95.12327881 196.86634521 93.99655762 196.23269043 92.83569336 195.57983398 C86.04482257 191.74999436 79.29015254 187.86664399 72.5847168 183.8894043 C62.92618804 178.16272698 53.17822331 172.58952052 43.44775391 166.98632812 C39.97840332 164.98755767 36.5103893 162.9864907 33.04296875 160.984375 C31.904646 160.32719482 30.76632324 159.67001465 29.59350586 158.99291992 C27.44709255 157.75365815 25.30076359 156.51425028 23.15454102 155.2746582 C15.44889427 150.82729222 7.72494822 146.41425612 0 142 C0 95.14 0 48.28 0 0 Z " fill="#EDAE84" transform="translate(116,170)"/>
<path d="M0 0 C0 10.89 0 21.78 0 33 C-5.94 33.33 -11.88 33.66 -18 34 C-18.67043088 41.22843774 -18.67043088 41.22843774 -16.85067654 43.97577 C-14.27395771 45.40181754 -12.33289614 45.38064719 -9.38917542 45.38768005 C-8.22126465 45.39758469 -7.05335388 45.40748932 -5.85005188 45.41769409 C-3.92602791 45.41094162 -3.92602791 45.41094162 -1.96313477 45.40405273 C-0.59973591 45.40975448 0.76365816 45.41671798 2.12704468 45.42485046 C5.83163153 45.44281939 9.53598202 45.44160651 13.24059939 45.43590808 C16.33213865 45.43282143 19.42363216 45.43890286 22.51516491 45.44494683 C29.80808146 45.45900285 37.10088089 45.45742201 44.39379883 45.44604492 C51.91984156 45.43456366 59.44552794 45.44863681 66.9715237 45.4754414 C73.43106678 45.49758711 79.89049791 45.50423832 86.35007626 45.49836498 C90.20898503 45.49499132 94.06766539 45.49743725 97.92654228 45.51461601 C101.55542759 45.53006522 105.1837845 45.52615285 108.81264877 45.50731087 C110.77994859 45.50185808 112.747272 45.51615465 114.71452332 45.53100586 C115.88525391 45.52117172 117.0559845 45.51133759 118.26219177 45.50120544 C119.27964194 45.50099616 120.29709211 45.50078688 121.34537411 45.50057125 C124.71778802 44.86464984 125.90508254 43.66628389 128 41 C128.66685938 38.45672892 128.66685938 38.45672892 128 36 C122.95979307 31.65580566 122.95979307 31.65580566 110 32 C110 21.77 110 11.54 110 1 C114.26634366 2.42211455 117.14454638 3.48641425 120.8515625 5.6953125 C121.77195312 6.23873291 122.69234375 6.78215332 123.640625 7.34204102 C124.62546875 7.93041748 125.6103125 8.51879395 126.625 9.125 C128.76226221 10.38800338 130.90031758 11.64966529 133.0390625 12.91015625 C134.16473633 13.57418457 135.29041016 14.23821289 136.45019531 14.92236328 C143.19137468 18.88093648 149.99912339 22.7256323 156.79864502 26.58282471 C163.28532297 30.26328441 169.71337356 33.98611229 176 38 C174.69204145 41.92387566 173.2626032 42.2734936 169.69140625 44.265625 C168.56524902 44.90056885 167.4390918 45.5355127 166.27880859 46.18969727 C165.04005672 46.87649669 163.8012867 47.5632634 162.5625 48.25 C161.28668728 48.96632588 160.01146657 49.68370709 158.73681641 50.40209961 C156.1093667 51.88243388 153.47988874 53.35906736 150.84912109 54.83349609 C145.16255855 58.02694477 139.51904247 61.29466833 133.875 64.5625 C131.72926223 65.80224874 129.58342873 67.04183182 127.4375 68.28125 C126.37789062 68.89355469 125.31828125 69.50585938 124.2265625 70.13671875 C120.96475993 72.0203505 117.70138156 73.90122321 114.4375 75.78125 C103.7165076 81.95746523 93.00464896 88.14896715 82.3125 94.375 C81.32064697 94.95000244 80.32879395 95.52500488 79.30688477 96.11743164 C74.93890192 98.65822193 70.60228243 101.22437736 66.34375 103.9453125 C65.65240967 104.38182129 64.96106934 104.81833008 64.2487793 105.26806641 C63.00555605 106.05905172 61.77159573 106.86489871 60.55004883 107.68896484 C58.92578125 108.71875 58.92578125 108.71875 56 110 C52.54324699 108.89999567 49.47155764 107.23830829 46.32421875 105.453125 C45.42662842 104.94539551 44.52903809 104.43766602 43.60424805 103.91455078 C42.64172119 103.36524902 41.67919434 102.81594727 40.6875 102.25 C39.67276611 101.67362793 38.65803223 101.09725586 37.61254883 100.50341797 C28.4219122 95.26959599 19.28811786 89.93975958 10.16015625 84.59765625 C3.82913055 80.8948705 -2.52061038 77.22501358 -8.875 73.5625 C-9.94991699 72.94294434 -11.02483398 72.32338867 -12.13232422 71.68505859 C-14.31712945 70.42611229 -16.50202569 69.16732391 -18.68701172 67.90869141 C-22.04314081 65.97514555 -25.39865548 64.04053831 -28.75390625 62.10546875 C-29.8634668 61.46561035 -30.97302734 60.82575195 -32.11621094 60.16650391 C-34.30620746 58.90279671 -36.49567315 57.63816906 -38.68457031 56.37255859 C-43.73032096 53.4559442 -48.78201804 50.55179604 -53.85546875 47.68359375 C-54.75015869 47.17473633 -55.64484863 46.66587891 -56.56665039 46.14160156 C-58.23033014 45.19600784 -59.89733008 44.25622384 -61.56811523 43.32324219 C-63.41186707 42.2715492 -65.21198957 41.14389583 -67 40 C-67 39.34 -67 38.68 -67 38 C-65.99755249 37.4423999 -65.99755249 37.4423999 -64.97485352 36.87353516 C-52.36798002 29.85469592 -39.80649894 22.78264133 -27.39794922 15.41894531 C-22.2751009 12.3875877 -17.13759641 9.38126924 -12 6.375 C-10.92935303 5.7459375 -9.85870605 5.116875 -8.75561523 4.46875 C-7.26783569 3.59863281 -7.26783569 3.59863281 -5.75 2.7109375 C-4.85796875 2.18806152 -3.9659375 1.66518555 -3.046875 1.12646484 C-1 0 -1 0 0 0 Z " fill="#F1982E" transform="translate(190,119)"/>
<path d="M0 0 C1.09256355 0.00842926 1.09256355 0.00842926 2.2071991 0.01702881 C2.97481064 0.01513046 3.74242218 0.01323212 4.53329468 0.01127625 C7.07769393 0.00756316 9.62180947 0.0182802 12.16618347 0.02947998 C13.92973293 0.03067161 15.69328304 0.03112498 17.45683289 0.03086853 C21.15572575 0.03243432 24.85452195 0.0407312 28.5533905 0.05413818 C33.3017309 0.07112815 38.04996498 0.07495257 42.79833221 0.074193 C46.44079102 0.07446456 50.08322645 0.07994342 53.72567749 0.08719444 C55.47682518 0.09038324 57.22797554 0.09234901 58.97912598 0.09308815 C61.42368611 0.09524948 63.86813212 0.10398922 66.31266785 0.11468506 C67.04104355 0.11423187 67.76941925 0.11377869 68.51986694 0.11331177 C73.53097806 0.14547103 73.53097806 0.14547103 75.75993347 1.25994873 C75.75993347 35.24994873 75.75993347 69.23994873 75.75993347 104.25994873 C48.36993347 104.25994873 20.97993347 104.25994873 -7.24006653 104.25994873 C-7.32028415 78.88444202 -7.32028415 78.88444202 -7.33772278 68.09979248 C-7.34969622 60.72980891 -7.36388769 53.35987484 -7.39094543 45.9899292 C-7.41261498 40.05070324 -7.42462269 34.11153034 -7.42982101 28.17226791 C-7.43352738 25.90196776 -7.44076457 23.63167064 -7.45152664 21.36139297 C-7.4659633 18.19095749 -7.46804776 15.02074362 -7.46711731 11.85028076 C-7.47430786 10.90369598 -7.48149841 9.95711121 -7.48890686 8.98184204 C-7.48615753 8.120849 -7.4834082 7.25985596 -7.48057556 6.37277222 C-7.48241915 5.62243273 -7.48426273 4.87209324 -7.48616219 4.09901619 C-6.89233386 -0.33864987 -3.7232286 0.02349921 0 0 Z " fill="#F4E5C6" transform="translate(210.2400665283203,46.74005126953125)"/>
<path d="M0 0 C0 28.38 0 56.76 0 86 C-3.63 83.69 -7.26 81.38 -11 79 C-32.82617989 66.42465132 -57.41300367 62.55402128 -81.984375 68.45654297 C-95.95558501 72.22348985 -108.23207222 79.42850864 -119 89 C-119.66 89 -120.32 89 -121 89 C-121 89.66 -121 90.32 -121 91 C-121.66 91 -122.32 91 -123 91 C-123 84.07 -123 77.14 -123 70 C-121.618125 69.22398437 -120.23625 68.44796875 -118.8125 67.6484375 C-107.55276143 61.31216631 -96.34356419 54.89855167 -85.19287109 48.37231445 C-77.8517141 44.07647883 -70.49418744 39.81006761 -63.125 35.5625 C-62.04790771 34.94149414 -60.97081543 34.32048828 -59.86108398 33.68066406 C-54.35945032 30.50968892 -48.85601864 27.3418539 -43.3515625 24.17578125 C-41.15094406 22.90902372 -38.95042238 21.64209807 -36.75 20.375 C-35.15212646 19.45557617 -35.15212646 19.45557617 -33.52197266 18.51757812 C-28.17630931 15.43489319 -22.84835671 12.32610949 -17.546875 9.16796875 C-16.52754883 8.56098145 -15.50822266 7.95399414 -14.45800781 7.32861328 C-12.52780456 6.17616278 -10.59995149 5.01976421 -8.67480469 3.85888672 C-7.39718262 3.09535889 -7.39718262 3.09535889 -6.09375 2.31640625 C-5.34802734 1.86724854 -4.60230469 1.41809082 -3.83398438 0.95532227 C-2 0 -2 0 0 0 Z " fill="#BC7E5A" transform="translate(374,170)"/>
<path d="M0 0 C8.27716874 6.1062984 14.25570932 13.00123656 17 23 C18.12680067 36.14164032 16.86267001 47.45468883 8.12109375 57.92578125 C-0.80193126 66.65161234 -10.53802364 69.41518114 -22.64624023 69.36572266 C-28.51790538 69.2267257 -33.03203595 68.27480079 -38 65 C-38.69351562 64.55269531 -39.38703125 64.10539062 -40.1015625 63.64453125 C-48.74540239 57.6067929 -54.26035612 50.29406617 -57 40 C-58.62377134 28.50093014 -56.61884466 18.81446552 -49.875 9.3125 C-45.91739045 4.52438566 -41.33212092 1.13804246 -36 -2 C-35.38769531 -2.36222656 -34.77539062 -2.72445313 -34.14453125 -3.09765625 C-23.66522134 -8.07128016 -9.5260966 -5.81024332 0 0 Z M-48 23 C-49.25433458 26.76300374 -49.10695422 30.27210909 -49.0625 34.1875 C-49.05798828 34.93708984 -49.05347656 35.68667969 -49.04882812 36.45898438 C-49.03706354 38.30602383 -49.01912865 40.15302213 -49 42 C-48.01 42.33 -47.02 42.66 -46 43 C-45.34 42.67 -44.68 42.34 -44 42 C-42.32783014 35.05406365 -43.82065616 29.69809631 -46 23 C-46.66 23 -47.32 23 -48 23 Z M-38 29 C-37.81535634 33.34184202 -37.81535634 33.34184202 -36 37 C-35.69862615 41.21036993 -35.84518597 45.24000386 -36.6875 49.375 C-36.790625 50.24125 -36.89375 51.1075 -37 52 C-35.77190909 53.64555699 -35.77190909 53.64555699 -34 55 C-33.505 55.886875 -33.01 56.77375 -32.5 57.6875 C-32.005 58.450625 -31.51 59.21375 -31 60 C-30.01 60 -29.02 60 -28 60 C-28 61.32 -28 62.64 -28 64 C-29.98 64.495 -29.98 64.495 -32 65 C-28.16907918 66.3791315 -24.95258918 65.57492206 -21 65 C-19.515 65.495 -19.515 65.495 -18 66 C-15.24146583 65.68563225 -15.24146583 65.68563225 -12.3125 65.0625 C-11.31863281 64.86785156 -10.32476562 64.67320312 -9.30078125 64.47265625 C-8.54152344 64.31667969 -7.78226562 64.16070312 -7 64 C-7.28211877 62.3733152 -7.57602375 60.74867104 -7.875 59.125 C-8.03742188 58.22007812 -8.19984375 57.31515625 -8.3671875 56.3828125 C-8.83044703 53.83494012 -8.83044703 53.83494012 -11 52 C-11.625 49.375 -11.625 49.375 -12 47 C-12.33 47 -12.66 47 -13 47 C-13 48.65 -13 50.3 -13 52 C-13.66 52 -14.32 52 -15 52 C-15 52.99 -15 53.98 -15 55 C-18.3 54.67 -21.6 54.34 -25 54 C-25.69531169 50.26269966 -26 46.79200032 -26 43 C-26.33 42.67 -26.66 42.34 -27 42 C-27.1875 38.5625 -27.1875 38.5625 -27 35 C-25 33 -25 33 -21.875 32.875 C-20.92625 32.91625 -19.9775 32.9575 -19 33 C-19.33 31.68 -19.66 30.36 -20 29 C-21.03125 29.515625 -22.0625 30.03125 -23.125 30.5625 C-27.84996429 32.58204119 -31.13931755 31.68764351 -35.875 29.9375 C-36.57625 29.628125 -37.2775 29.31875 -38 29 Z M-10 40 C-10.33 41.98 -10.66 43.96 -11 46 C-10.34 45.67 -9.68 45.34 -9 45 C-9 43.35 -9 41.7 -9 40 C-9.33 40 -9.66 40 -10 40 Z " fill="#FDD500" transform="translate(335,296)"/>
<path d="M0 0 C10.93498479 8.32678842 18.82977984 19.36866833 21.6171875 33.0234375 C23.37976756 46.72839671 20.96520094 60.0403525 12.984375 71.5 C3.38442856 83.59442071 -7.64104859 90.49192862 -23 93 C-38.04247075 94.24672652 -51.22236939 89.69965219 -63.05859375 80.37890625 C-70.34708558 73.6098615 -75.63519529 64.64112689 -78 55 C-78.18304688 54.25878906 -78.36609375 53.51757812 -78.5546875 52.75390625 C-81.13675472 36.78585899 -77.72480975 23.29010656 -68.62890625 9.99609375 C-52.25833059 -10.73378535 -21.62423141 -13.68967091 0 0 Z M-58.01171875 18.39453125 C-59.8219479 20.86509557 -61.44698375 23.36113499 -63 26 C-63.36222656 26.61230469 -63.72445313 27.22460938 -64.09765625 27.85546875 C-67.66296147 35.36748394 -67.10335521 45.42667259 -65.19140625 53.3515625 C-61.39322705 63.52384867 -53.94846486 72.38175713 -44 77 C-35.29093216 80.51856322 -23.92060627 80.37738863 -15 77.4375 C-5.16660034 73.14656197 1.23918199 66.6007632 6 57 C7.83351977 51.78765284 8.38728819 47.08894301 8.375 41.625 C8.37338867 40.87694092 8.37177734 40.12888184 8.37011719 39.3581543 C8.23986749 33.48734093 7.16840296 29.01203813 4 24 C3.443125 22.989375 2.88625 21.97875 2.3125 20.9375 C-3.90203105 13.04336596 -11.15186538 7.4705725 -21 5 C-35.74077309 3.36213632 -48.18625803 6.69937121 -58.01171875 18.39453125 Z " fill="#030328" transform="translate(344,286)"/>
<path d="M0 0 C3.4375 0.8125 3.4375 0.8125 5.4375 2.8125 C6.77406764 10.17359641 2.69048209 15.52895157 -0.9375 21.6875 C-1.89390381 23.34990723 -1.89390381 23.34990723 -2.86962891 25.04589844 C-4.75259863 28.3102174 -6.65532177 31.56228193 -8.5625 34.8125 C-9.5216492 36.46567275 -10.48007495 38.11926563 -11.4375 39.7734375 C-25.1987324 63.4487324 -25.1987324 63.4487324 -27.5625 65.8125 C-30.8125 66.1875 -30.8125 66.1875 -34.5625 65.8125 C-37 63.75 -37 63.75 -39.5625 60.8125 C-40.84151432 59.69370191 -42.13432726 58.59056298 -43.4375 57.5 C-53.78459002 48.44875047 -53.78459002 48.44875047 -55.6875 42 C-55.5625 38.8125 -55.5625 38.8125 -54.5625 36.875 C-51.37632147 35.18234266 -49.12609877 35.39607119 -45.5625 35.8125 C-43.05055942 37.48604151 -41.13383881 39.57429565 -39.125 41.8125 C-38.58423828 42.38484375 -38.04347656 42.9571875 -37.48632812 43.546875 C-36.16187013 44.95337906 -34.85984401 46.38094799 -33.5625 47.8125 C-30.09049062 43.77363195 -27.63046602 39.53579406 -25.125 34.875 C-21.07519219 27.47169981 -16.90064644 20.15025808 -12.625 12.875 C-11.79174194 11.44522827 -11.79174194 11.44522827 -10.94165039 9.98657227 C-10.41563232 9.09510498 -9.88961426 8.2036377 -9.34765625 7.28515625 C-8.88238525 6.49375244 -8.41711426 5.70234863 -7.93774414 4.88696289 C-4.53958827 -0.2389257 -4.53958827 -0.2389257 0 0 Z " fill="#02042A" transform="translate(269.5625,66.1875)"/>
</svg>
